<svg width="101" height="101" viewBox="0 0 101 101" fill="none" xmlns="http://www.w3.org/2000/svg">
<rect width="101" height="101" fill="#2946BF"/>
<path d="M13.298 28.3837L11.1595 11.2758C11.0786 10.6287 11.6287 10.0786 12.2758 10.1595L28.907 12.2384C33.9113 12.8639 37.6667 17.1179 37.6667 22.1612V22.4068C37.6667 27.2121 39.6835 32.0153 43.8743 34.3664C49.288 37.4034 53.5638 37.3217 58.5444 34.3564C62.5044 31.9987 64.3333 27.3572 64.3333 22.7485V22.1612C64.3333 17.1179 68.0887 12.8639 73.093 12.2384L89.7242 10.1595C90.3713 10.0786 90.9214 10.6287 90.8405 11.2758L88.6795 28.5638C88.1009 33.1929 84.1658 36.6667 79.5007 36.6667C75.1646 36.6667 70.8545 38.4464 68.5828 42.1398C65.1231 47.7645 65.0563 52.336 68.5689 57.9649C70.8436 61.6101 75.1298 63.3333 79.4265 63.3333C84.134 63.3333 88.1048 66.8387 88.6887 71.5099L90.8405 88.7242C90.9214 89.3713 90.3713 89.9214 89.7242 89.8405L73.093 87.7616C68.0887 87.1361 64.3333 82.8821 64.3333 77.8388V77.1749C64.3333 71.6726 61.6597 66.1506 56.4703 64.3215C52.463 62.9092 48.9922 62.917 45.1841 64.2988C40.1619 66.1212 37.6667 71.5409 37.6667 76.8836V77.8388C37.6667 82.8821 33.9113 87.1361 28.907 87.7616L12.2758 89.8405C11.6287 89.9214 11.0786 89.3713 11.1595 88.7242L13.3219 71.4245C13.8997 66.8021 17.8291 63.3333 22.4875 63.3333C26.8298 63.3333 31.1458 61.5435 33.4075 57.8367C36.8217 52.2411 37.0111 47.533 33.4399 41.8936C31.1719 38.3121 26.9199 36.6667 22.6807 36.6667C17.912 36.6667 13.8895 33.1157 13.298 28.3837Z" fill="#00BF63"/>
<rect x="71.2002" y="44.8999" width="10" height="10" rx="5" fill="#FCFF6D"/>
<rect x="46.2002" y="22.3999" width="10" height="10" rx="5" fill="#FCFF6D"/>
<rect x="21.2002" y="44.8999" width="10" height="10" rx="5" fill="#FCFF6D"/>
<rect x="46.2002" y="67.3999" width="10" height="10" rx="5" fill="#FCFF6D"/>
</svg>
