<svg width="199" height="200" viewBox="0 0 199 200" fill="none" xmlns="http://www.w3.org/2000/svg">
<rect width="199" height="200" fill="#E5E5E5"/>
<rect width="471" height="351" transform="translate(-136 -16)" fill="#2946BF"/>
<path d="M6.73838 57.907L0.137893 5.10314C-0.185645 2.51484 2.01484 0.314355 4.60314 0.637893L57.407 7.23838C62.4113 7.86391 66.1667 12.1179 66.1667 17.1612V42.4068C66.1667 47.2121 68.3027 51.8224 72.1688 54.6763C93.9926 70.7859 107.655 70.1811 127.26 54.6609C130.874 51.8003 132.833 47.3572 132.833 42.7485V17.1612C132.833 12.1179 136.589 7.86391 141.593 7.23838L194.397 0.637893C196.985 0.314355 199.186 2.51484 198.862 5.10314L192.262 57.907C191.636 62.9113 187.382 66.6667 182.339 66.6667H161.055C156.367 66.6667 151.858 68.6965 148.996 72.409C133.063 93.0771 132.677 107.1 149.012 127.767C151.866 131.379 156.305 133.333 160.909 133.333H182.339C187.382 133.333 191.636 137.089 192.262 142.093L198.862 194.897C199.186 197.485 196.985 199.686 194.397 199.362L141.593 192.762C136.589 192.136 132.833 187.882 132.833 182.839V154.675C132.833 149.173 130.042 143.98 125.219 141.331C105.207 130.34 91.9377 130.537 73.4153 141.287C68.7945 143.968 66.1667 149.041 66.1667 154.384V182.839C66.1667 187.882 62.4113 192.136 57.407 192.762L4.60314 199.362C2.01484 199.686 -0.185646 197.485 0.137892 194.897L6.73838 142.093C7.36391 137.089 11.6179 133.333 16.6612 133.333H37.9218C42.6229 133.333 47.1439 131.293 50.002 127.561C65.594 107.199 66.7042 92.4977 49.955 71.9877C47.1193 68.5153 42.781 66.6667 38.2978 66.6667H16.6612C11.6179 66.6667 7.36391 62.9113 6.73838 57.907Z" fill="#00BF63"/>
<rect x="150" y="87.25" width="25" height="25" rx="12.5" fill="#FCFF6D"/>
<rect x="87.5" y="31" width="25" height="25" rx="12.5" fill="#FCFF6D"/>
<rect x="25" y="87.25" width="25" height="25" rx="12.5" fill="#FCFF6D"/>
<rect x="87.5" y="143.5" width="25" height="25" rx="12.5" fill="#FCFF6D"/>
</svg>
